<svg xmlns="http://www.w3.org/2000/svg" version="1.1" xmlns:xlink="http://www.w3.org/1999/xlink" width="512" height="512" x="0" y="0" viewBox="0 0 24 24" style="enable-background:new 0 0 512 512" xml:space="preserve" class=""><g><path d="M7.6 15.5v3c0 .496.404.9.9.9s.9-.404.9-.9H11a2.5 2.5 0 1 1-5 0v-3a2.5 2.5 0 1 1 5 0H9.4c0-.496-.404-.9-.9-.9s-.9.404-.9.9ZM24 12.478c0-3.784-2.693-6.801-6.417-7.381C16.268 2.051 13.315 0 10.091 0 5.554 0 2 3.514 2 8c0 .715.044 1.342.133 1.893C.795 10.98 0 12.728 0 14.5c0 2.687 1.836 5.121 4.401 5.836A4.458 4.458 0 0 1 4 18.5v-1.709c-.629-.561-1-1.434-1-2.291 0-1.056.585-2.124 1.527-2.605l1.198-.612-.479-1.258c-.113-.295-.247-.886-.247-2.024 0-2.851 2.188-5 5.091-5 2.205 0 4.295 1.651 4.971 3.927l.308 1.038L16.451 8c2.593.083 4.548 2.008 4.548 4.479h.006c0 .021-.006.04-.006.061a4.999 4.999 0 0 1-1.511 3.552c.169-.022.336-.052.511-.052.995 0 1.894.378 2.595.981a7.903 7.903 0 0 0 1.405-4.481c0-.021-.005-.04-.006-.061h.006ZM17 15.5v3a2.5 2.5 0 1 1-5 0v-3a2.5 2.5 0 1 1 5 0Zm-1.6 0c0-.496-.404-.9-.9-.9s-.9.404-.9.9v3c0 .496.404.9.9.9s.9-.404.9-.9v-3ZM22 20a2 2 0 1 0-4 0v.333h1.333V20a.667.667 0 1 1 1.334 0c0 1-2.667 1.84-2.667 3.346V24h4v-1.333h-2c.575-.526 2-1.244 2-2.667Z" fill="#000000" opacity="1" data-original="#000000"></path></g></svg>