<svg xmlns="http://www.w3.org/2000/svg" version="1.1" xmlns:xlink="http://www.w3.org/1999/xlink" width="512" height="512" x="0" y="0" viewBox="0 0 24 24" style="enable-background:new 0 0 512 512" xml:space="preserve" class=""><g><path d="M24 12.962a11.9 11.9 0 0 1-3.482 8.438 3.512 3.512 0 0 1-4.718.276l-1.282-1.04a1.5 1.5 0 1 1 1.888-2.33l1.283 1.04a.524.524 0 0 0 .7-.059A9.04 9.04 0 0 0 18 6.25 9 9 0 0 0 5.6 19.277a.519.519 0 0 0 .7.056l1.242-1.027a1.5 1.5 0 1 1 1.912 2.312l-1.239 1.027a3.505 3.505 0 0 1-4.751-.258A12 12 0 1 1 24 12.962Zm-7.439-2.4a1.5 1.5 0 0 0-2.122-2.122L11.875 11A2 2 0 1 0 14 13.125Z" fill="#000000" opacity="1" data-original="#000000" class=""></path></g></svg>